<?xml version="1.0" standalone="no"?><!DOCTYPE svg PUBLIC "-//W3C//DTD SVG 1.1//EN" "http://www.w3.org/Graphics/SVG/1.1/DTD/svg11.dtd"><svg t="1571823730329" class="icon" viewBox="0 0 1024 1024" version="1.1" xmlns="http://www.w3.org/2000/svg" p-id="2575" xmlns:xlink="http://www.w3.org/1999/xlink" width="64" height="64"><defs><style type="text/css"></style></defs><path d="M896 1024H128a85.333333 85.333333 0 0 1-85.333333-85.333333V85.333333a85.333333 85.333333 0 0 1 85.333333-85.333333h85.333333v42.666667A128 128 0 0 0 341.333333 170.666667h341.333334A128 128 0 0 0 810.666667 42.666667V0h85.333333a85.333333 85.333333 0 0 1 85.333333 85.333333v853.333334a85.333333 85.333333 0 0 1-85.333333 85.333333zM512 256a298.666667 298.666667 0 1 0 0 597.333333 298.666667 298.666667 0 0 0 0-597.333333z m-13.568 492.8a57.770667 57.770667 0 0 1-83.882667 0l-98.730666-99.84a63.914667 63.914667 0 0 1 0-87.381333 57.770667 57.770667 0 0 1 83.882666 0l56.064 56.746666L624.042667 442.88a57.685333 57.685333 0 0 1 83.882666 0.085333 63.829333 63.829333 0 0 1 0 87.466667L498.432 748.8zM298.666667 0h426.666666v85.333333H298.666667V0z" fill="#e6e6e6" p-id="2576"></path></svg>