<?xml version="1.0" standalone="no"?><!DOCTYPE svg PUBLIC "-//W3C//DTD SVG 1.1//EN" "http://www.w3.org/Graphics/SVG/1.1/DTD/svg11.dtd"><svg t="1571823896659" class="icon" viewBox="0 0 1143 1024" version="1.1" xmlns="http://www.w3.org/2000/svg" p-id="6795" xmlns:xlink="http://www.w3.org/1999/xlink" width="71.4375" height="64"><defs><style type="text/css"></style></defs><path d="M616.513514 683.683317c-10.506832-36.423265 9.192689-70.19297 33.978199-104.840877 88.559393-123.801192 175.539287-248.733306 261.912652-374.07609 12.421186-18.025251 19.661613-21.196887 37.269876-6.614945 29.884136 24.747602 61.846893 47.024867 93.462161 69.605396 11.71357 8.371349 13.413112 14.329222 4.302557 27.24953-98.01112 138.977026-195.245126 278.503718-292.491767 418.024092-6.324317 9.072647-13.54579 15.100018-24.583335 17.639853-15.302194 3.519125-30.288488 8.428211-45.388505 12.812902-67.63418 19.636341-67.63418 19.648977-68.461838-59.799861z" p-id="6796" fill="#e6e6e6"></path><path d="M1022.880897 59.048019c2.08494 1.503684 5.496659 3.904523 8.845198 6.387498 33.763387 25.050866 66.97079 50.904119 101.5492 74.773519 13.41943 9.262187 11.6188 15.12529 3.759209 26.946266-39.677034 59.698773-39.304272 59.945175-95.51551 18.195837-8.440847-6.267455-17.260773-12.086332-25.221452-18.909771-15.554914-13.343614-46.936415-21.765507-44.339718-39.304272 3.31695-22.428897 25.341494-42.147372 39.544356-62.864091 2.141802-3.140046 4.296239-7.663733 11.378717-5.224986z" fill="#e6e6e6" p-id="6797"></path><path d="M947.380808 519.510111c-6.355907 8.794655-12.256918 16.786924-17.993662 24.892916-44.857794 63.521163-89.905127 126.915966-134.339614 190.727757-9.451727 13.57738-20.148099 21.961365-36.960295 26.251286-49.798469 12.699178-99.394762 26.548232-148.232894 42.507498-24.261116 7.929089-32.284975 5.300801-31.710038-22.441533 0.97929-47.290223-1.23201-94.719442-3.923477-141.990712-1.20042-21.095799 3.696029-37.813225 16.129851-55.282492 114.551641-160.976299 227.650143-322.988749 342.669317-483.630194 14.942068-20.868351 12.351688-35.071213-0.796068-53.039602-25.998566-35.532427-61.398315-47.612441-104.190123-47.505035-234.73262 0.574938-469.471558 0.145314-704.204178 0.34749-80.838798 0.069498-123.163074 41.187036-123.33366 122.089014-0.562302 258.943192-0.562302 517.886385-0.006318 776.829578 0.170586 80.560806 45.034697 124.306632 126.132534 124.420356 234.73262 0.334854 469.46524 0.328536 704.19786-0.006318 77.288083-0.107406 120.913866-44.074362 121.172904-121.596211 0.404352-119.997757 0.170586-239.995513-0.06318-359.99327-0.012636-6.728669 2.975778-14.322904-4.548959-22.580528z m-812.627361-312.778863c11.764114-12.269554 27.331664-14.790436 43.467834-14.790436 142.022301-0.025272 284.050921-0.341172 426.073222 0.208494 37.238287 0.145314 60.343209 22.776387 59.528188 54.87814-0.777114 30.781292-22.485759 49.659473-60.570657 50.006963-71.532386 0.657072-143.071089 0.18954-214.609793 0.18954-70.483598 0-140.973514 0.12636-211.457112-0.075816-24.728648-0.069498-45.957125-7.613189-55.92061-32.638783-8.744111-21.961365-2.287116-41.33235 13.488928-57.778102z m257.237333 609.491054c-35.677741 0.56862-71.368118 0.12636-107.058494 0.12636-35.684059 0-71.387072 0.53703-107.058495-0.151632-35.936779-0.69498-60.159987-21.601239-60.419025-50.638763-0.296946-32.626147 21.140025-52.723702 60.166305-53.159644 72.416906-0.802386 144.852765-0.878202 217.263353 0.044226 38.906238 0.499122 59.300739 20.899941 58.201407 54.429562-0.97929 29.90309-23.736723 48.762317-61.095051 49.349891z m91.358267-260.080433c-51.479057 0.511758-102.964431 0.12636-154.443488 0.12636-49.381481 0-98.762962 0.385398-148.138124-0.120042-39.97398-0.41067-62.984133-19.269897-63.318987-50.436586-0.353808-32.714599 23.913627-54.448516 63.217899-54.612784 100.860537-0.416988 201.721075-0.41067 302.581612-0.006318 39.361134 0.15795 63.723339 21.809733 63.457983 54.46747-0.25272 31.052966-23.534547 50.190185-63.356895 50.5819z" p-id="6798" fill="#e6e6e6"></path></svg>