<?xml version="1.0" standalone="no"?><!DOCTYPE svg PUBLIC "-//W3C//DTD SVG 1.1//EN" "http://www.w3.org/Graphics/SVG/1.1/DTD/svg11.dtd"><svg t="1573523857979" class="icon" viewBox="0 0 1024 1024" version="1.1" xmlns="http://www.w3.org/2000/svg" p-id="3446" xmlns:xlink="http://www.w3.org/1999/xlink" width="64" height="64"><defs><style type="text/css"></style></defs><path d="M787.072 420.352H373.248V267.008c0-50.816 61.824-107.264 137.856-107.264 76.16 0 137.984 56.448 137.984 107.264v45.952h0.512c3.712 25.984 25.984 45.952 52.992 45.952 27.136 0 49.408-19.968 53.12-45.952h0.64v-45.952C756.352 148.48 646.528 52.48 511.104 52.48s-245.248 96-245.248 214.528v153.216h-30.72c-50.688 0-91.904 41.216-91.904 91.904v367.872c0 50.816 41.216 91.904 91.904 91.904h551.808c50.816 0 91.904-41.216 91.904-91.904V512.256c0.128-50.816-40.96-91.904-91.776-91.904z" fill="" p-id="3447"></path></svg>