<?xml version="1.0" standalone="no"?><!DOCTYPE svg PUBLIC "-//W3C//DTD SVG 1.1//EN" "http://www.w3.org/Graphics/SVG/1.1/DTD/svg11.dtd"><svg t="1573111881107" class="icon" viewBox="0 0 1024 1024" version="1.1" xmlns="http://www.w3.org/2000/svg" p-id="6302" xmlns:xlink="http://www.w3.org/1999/xlink" width="64" height="64"><defs><style type="text/css"></style></defs><path d="M929.300223 166.906436c-16.963701-19.011633-39.900537-29.69501-63.827205-29.69501h-87.51495V45.532349c0-25.087164-20.342789-45.498217-45.39582-45.498217l-5.153962 0.102397v0.30719a45.498217 45.498217 0 0 0-40.207726 45.191027v91.679077H317.105163v-91.815606C317.105163 20.479317 296.762375 0.034132 271.743475 0.034132L266.589514 0.136529v0.30719a45.498217 45.498217 0 0 0-40.173595 45.191027v91.679077H124.394787c-23.926669 0-46.965901 10.683377-63.827206 29.69501C43.638012 185.986334 34.149262 211.790274 34.149262 238.686444V922.627379c0 26.89617 9.48875 52.70011 26.418319 71.677611 16.963701 19.011633 39.900537 29.69501 63.827206 29.69501h741.078231c23.926669 0 46.965901-10.683377 63.827205-29.69501 16.929569-18.977501 26.418319-44.781441 26.41832-71.677611V238.584047c0-26.89617-9.48875-52.70011-26.41832-71.677611z m-209.981267 351.902937l-244.488917 245.069164c-18.021799 18.090064-47.136562 18.090064-65.192494 0l-112.158394-112.499716a46.351522 46.351522 0 0 1 0.989833-64.373321 46.044332 46.044332 0 0 1 64.20266-1.023966l79.562148 79.801073 211.89267-212.438785a45.941935 45.941935 0 0 1 44.542516-11.912136 46.283257 46.283257 0 0 1 20.649978 77.377687z" p-id="6303"></path></svg>