<?xml version="1.0" standalone="no"?><!DOCTYPE svg PUBLIC "-//W3C//DTD SVG 1.1//EN" "http://www.w3.org/Graphics/SVG/1.1/DTD/svg11.dtd"><svg t="1573111890867" class="icon" viewBox="0 0 1024 1024" version="1.1" xmlns="http://www.w3.org/2000/svg" p-id="6422" xmlns:xlink="http://www.w3.org/1999/xlink" width="64" height="64"><defs><style type="text/css"></style></defs><path d="M731.96794311 344.84921837h-292.04783408a41.63235082 41.63235082 0 0 1 0-83.26470162h292.66921245c22.9909997 0 41.63235082 18.64135111 41.63235082 41.6323508s-18.64135111 41.63235082-42.25372919 41.63235082m0 208.78313245h-292.04783408a41.63235082 41.63235082 0 0 1 0-83.26470164h292.66921245c22.9909997 0 41.63235082 18.64135111 41.63235082 41.63235082s-18.64135111 41.63235082-42.25372919 41.63235082m0 209.40451081h-292.04783408a41.63235082 41.63235082 0 0 1 0-83.26470163h292.66921245c22.9909997 0 41.63235082 18.64135111 41.63235082 41.63235082s-18.64135111 41.63235082-42.25372919 41.63235081m-428.75107556-418.18764326a41.63235082 41.63235082 0 1 1 0-83.26470162 41.63235082 41.63235082 0 0 1 0 83.26470162m0 208.78313245c-22.9909997-1.24275675-41.01097245-20.50548622-39.7682157-43.49648593 1.24275675-21.74824297 18.01997275-39.14683733 39.7682157-39.76821571a41.63235082 41.63235082 0 0 1 0 83.26470164m0 209.40451081c-22.9909997-1.24275675-41.01097245-20.50548622-39.7682157-43.49648593 1.24275675-21.74824297 18.01997275-39.14683733 39.7682157-39.7682157a41.63235082 41.63235082 0 0 1 0 83.26470163M887.93391408 52.18000592H135.44470755C89.46270815 52.18000592 52.18000592 89.46270815 52.18000592 135.44470755v753.1105849c0 45.98199941 37.28270222 83.26470163 83.26470163 83.26470163h753.1105849c45.98199941 0 83.26470163-37.28270222 83.26470163-83.26470163V135.44470755c0-45.98199941-37.90408059-83.26470163-83.88608-83.26470163" p-id="6423"></path></svg>