<?xml version="1.0" standalone="no"?><!DOCTYPE svg PUBLIC "-//W3C//DTD SVG 1.1//EN" "http://www.w3.org/Graphics/SVG/1.1/DTD/svg11.dtd"><svg t="1573464324215" class="icon" viewBox="0 0 1024 1024" version="1.1" xmlns="http://www.w3.org/2000/svg" p-id="3953" xmlns:xlink="http://www.w3.org/1999/xlink" width="64" height="64"><defs><style type="text/css"></style></defs><path d="M963.584 65.024H66.56C31.232 65.024 0 93.184 0 128v571.904c0 35.328 31.232 63.488 66.56 63.488h307.2l-38.912 170.496s-9.728 37.888 37.888 19.968l322.56-190.464h268.288c35.328 0 60.416-28.672 60.416-63.488V128c0-34.816-25.088-62.976-60.416-62.976z m-448.512 285.696c32.768 0 58.88 26.112 58.88 58.88 0 32.256-26.624 58.368-58.88 58.368S455.68 441.856 455.68 409.6c0-32.256 26.624-58.88 59.392-58.88zM255.488 467.968c-32.768 0-58.88-26.112-58.88-58.368 0-32.256 26.624-58.368 58.88-58.368s58.88 25.6 58.88 58.368c0 32.256-26.624 58.368-58.88 58.368z m511.488 0c-32.768 0-58.88-26.112-58.88-58.368 0-32.256 26.624-58.368 58.88-58.368 32.768 0 58.88 26.112 58.88 58.368 0 32.256-26.624 58.368-58.88 58.368z" p-id="3954"></path></svg>