<?xml version="1.0" standalone="no"?><!DOCTYPE svg PUBLIC "-//W3C//DTD SVG 1.1//EN" "http://www.w3.org/Graphics/SVG/1.1/DTD/svg11.dtd"><svg t="1574321616806" class="icon" viewBox="0 0 1024 1024" version="1.1" xmlns="http://www.w3.org/2000/svg" p-id="3315" xmlns:xlink="http://www.w3.org/1999/xlink" width="64" height="64"><defs><style type="text/css"></style></defs><path d="M709.67867161 0.14678816c-171.48552531 0-310.49886149 139.01450012-310.49886147 310.4976975 0 35.57270641 6.06132 69.71333062 17.07438647 101.54049994L41.96593778 783.70687888c-53.72639572 53.72872361-53.72639572 140.83662278 0 194.56301738 53.72872361 53.72639572 140.83662278 53.72639572 194.56301738 0l25.86597943-25.67503417 74.97128735 0c17.4225112 0 31.54540997-14.12289879 31.54540999-31.54541002l0-73.24114487 73.24114489 0c17.4225112 0 31.54540997-14.12289879 31.54541-31.54540998l0-73.40996723L612.14683932 605.42652757c30.68033932 10.14683191 63.44593067 15.71681846 97.53066836 15.71681849 171.4831963 0 310.49769755-139.01450012 310.49769759-310.49886153C1020.17520411 139.16128822 881.16186795 0.14678816 709.67867161 0.14678816zM784.19704714 335.48471978c-53.16054809 0-96.25460052-43.09521749-96.25460049-96.25460053 0-53.16054809 43.09521749-96.25343655 96.25460054-96.25343658 53.16054809 0 96.25460052 43.09288846 96.25460054 96.25343658C880.4516477 292.38950347 837.35759531 335.48471978 784.19704714 335.48471978z" p-id="3316"></path></svg>