<?xml version="1.0" standalone="no"?><!DOCTYPE svg PUBLIC "-//W3C//DTD SVG 1.1//EN" "http://www.w3.org/Graphics/SVG/1.1/DTD/svg11.dtd"><svg class="icon" width="64px" height="64.00px" viewBox="0 0 1024 1024" version="1.1" xmlns="http://www.w3.org/2000/svg"><path d="M512 512m-414 0a414 414 0 1 0 828 0 414 414 0 1 0-828 0Z" fill="#F0C48A" /><path d="M127 187.6V83.4C127 44 159.4 11.8 198.8 11.8h501.6c39.4 0 71.8 32.2 71.8 71.8v857c0 39.4-32.2 71.8-71.8 71.8H198.8c-39.4 0-71.8-32.2-71.8-71.8V187.6z" fill="#A4CFF2" /><path d="M127 152.4H774v650.8H127z" fill="#FFFFFF" /><path d="M673.8 158.2H772V68c0-29.4-23.8-53.2-53.2-53.2h-45v143.4zM673.8 1012.2h25.2c40.4 0 73.2-32.8 73.2-73.2v-126.8c0-5-4-9-9-9H674v209z" fill="#7BABF1" /><path d="M673.8 158.2H772v645h-98.2z" fill="#D3E6F8" /><path d="M419.483785 936.083442a44 44 0 1 0 62.224311-62.226483 44 44 0 1 0-62.224311 62.226483Z" fill="#7BABF1" /><path d="M769.4 164.2H129.8c-6.4 0-11.8-5.2-11.8-11.8s5.2-11.8 11.8-11.8h639.6c6.4 0 11.8 5.2 11.8 11.8s-5.4 11.8-11.8 11.8zM769.4 815H129.8c-6.4 0-11.8-5.2-11.8-11.8 0-6.4 5.2-11.8 11.8-11.8h639.6c6.4 0 11.8 5.2 11.8 11.8-0.2 6.6-5.4 11.8-11.8 11.8zM450.6 960.6c-30.8 0-55.6-25-55.6-55.6 0-30.8 25-55.6 55.6-55.6s55.6 25 55.6 55.6-25 55.6-55.6 55.6z m0-87.8c-17.8 0-32.2 14.4-32.2 32.2s14.4 32.2 32.2 32.2 32.2-14.4 32.2-32.2-14.4-32.2-32.2-32.2z" fill="#4C4372" /><path d="M700.4 1024H198.8c-46 0-83.4-37.4-83.4-83.4V83.4C115.4 37.4 152.8 0 198.8 0h501.6c46 0 83.4 37.4 83.4 83.4v857c0 46.2-37.4 83.6-83.4 83.6zM198.8 23.4c-33.2 0-60 27-60 60v857c0 33.2 27 60 60 60h501.6c33.2 0 60-27 60-60V83.4c0-33.2-27-60-60-60H198.8z" fill="#4C4372" /><path d="M515.2 98.2h-129.4c-6.4 0-11.8-5.2-11.8-11.8s5.2-11.8 11.8-11.8h129.4c6.4 0 11.8 5.2 11.8 11.8s-5.2 11.8-11.8 11.8z" fill="#4C4372" /><path d="M672.4 478H228.8c-6.4 0-11.8-5.2-11.8-11.8s5.2-11.8 11.8-11.8h443.6c6.4 0 11.8 5.2 11.8 11.8s-5.4 11.8-11.8 11.8z" fill="#4C4372" /><path d="M672.4 572.6H228.8c-6.4 0-11.8-5.2-11.8-11.8 0-6.4 5.2-11.8 11.8-11.8h443.6c6.4 0 11.8 5.2 11.8 11.8-0.2 6.6-5.4 11.8-11.8 11.8z" fill="#4C4372" /><path d="M450.6 667.2H228.8c-6.4 0-11.8-5.2-11.8-11.8 0-6.4 5.2-11.8 11.8-11.8h221.8c6.4 0 11.8 5.2 11.8 11.8-0.2 6.6-5.4 11.8-11.8 11.8z" fill="#4C4372" /><path d="M621.2 288.6H280c-6.4 0-11.8-5.2-11.8-11.8s5.2-11.8 11.8-11.8h341c6.4 0 11.8 5.2 11.8 11.8s-5.2 11.8-11.6 11.8z" fill="#4C4372" /><path d="M672.4 383.4H228.8c-6.4 0-11.8-5.2-11.8-11.8s5.2-11.8 11.8-11.8h443.6c6.4 0 11.8 5.2 11.8 11.8s-5.4 11.8-11.8 11.8z" fill="#4C4372" /><path d="M897 277h-123.6V153.4h123.6l-61.4 61.8z" fill="#FD919E" /><path d="M897 277l-45.8-46H774v46z" fill="#E8677D" /><path d="M897 288.6h-123.6c-6.4 0-11.8-5.2-11.8-11.8V153.4c0-6.4 5.2-11.8 11.8-11.8h123.6c4.8 0 9 2.8 10.8 7.2 1.8 4.4 0.8 9.4-2.6 12.8L852 215.2l53.2 53.6c3.4 3.4 4.4 8.4 2.6 12.8-1.8 4.2-6.2 7-10.8 7z m-112-23.4h83.6l-41.6-41.8c-4.6-4.6-4.6-12 0-16.6l41.6-41.8h-83.6v100.2z" fill="#4C4372" /></svg>