<?xml version="1.0" standalone="no"?><!DOCTYPE svg PUBLIC "-//W3C//DTD SVG 1.1//EN" "http://www.w3.org/Graphics/SVG/1.1/DTD/svg11.dtd"><svg t="1574135160177" class="icon" viewBox="0 0 1024 1024" version="1.1" xmlns="http://www.w3.org/2000/svg" p-id="4119" xmlns:xlink="http://www.w3.org/1999/xlink" width="64" height="64"><defs><style type="text/css"></style></defs><path d="M608.3 703h-288c-17.7 0-32 14.3-32 32s14.3 32 32 32h288c17.7 0 32-14.3 32-32s-14.3-32-32-32zM320.3 511c-17.7 0-32 14.3-32 32s14.3 32 32 32h384c17.7 0 32-14.3 32-32s-14.3-32-32-32h-384zM320.3 319c-17.7 0-32 14.3-32 32s14.3 32 32 32h384c17.7 0 32-14.3 32-32s-14.3-32-32-32h-384z" p-id="4120" fill="#e6e6e6"></path><path d="M832 864c0 17.7-14.3 32-32 32H224c-17.7 0-32-14.3-32-32V192c0-17.7 14.3-32 32-32h96V96h-96c-53 0-96 43-96 96v672c0 53 43 96 96 96h576c53 0 96-43 96-96V192c0-53-43-96-96-96h-96v64h96c17.7 0 32 14.3 32 32v672z" p-id="4121" fill="#e6e6e6"></path><path d="M671.8 64H351.9v128h319.9V64z" p-id="4122" fill="#e6e6e6"></path></svg>