<?xml version="1.0" standalone="no"?><!DOCTYPE svg PUBLIC "-//W3C//DTD SVG 1.1//EN" "http://www.w3.org/Graphics/SVG/1.1/DTD/svg11.dtd"><svg t="1574134783498" class="icon" viewBox="0 0 1024 1024" version="1.1" xmlns="http://www.w3.org/2000/svg" p-id="6916" xmlns:xlink="http://www.w3.org/1999/xlink" width="64" height="64"><defs><style type="text/css"></style></defs><path d="M630.000781 0c-95.976006 0-130.847288 12.732817-196.87878 78.764309L39.236472 472.649838c-46.516371 46.516371-57.52162 139.421145 0 196.942764l315.057236 315.057236c31.032242 31.032242 68.910772 39.350162 102.182454 39.350162 39.990002 0 73.517621-18.107473 94.76031-39.350162l393.821545-393.821545C1013.712853 522.173457 1023.88631 484.614846 1023.88631 393.885529L1023.88631 236.356911c0-178.899275-57.393652-236.292927-236.292927-236.292927L630.000781 0 630.000781 0 630.000781 0zM866.357692 275.707073c0 65.135716-53.042739 118.178455-118.178455 118.178455-65.1997 0-118.178455-53.042739-118.178455-118.178455s52.978755-118.178455 118.178455-118.178455C813.314953 157.528618 866.357692 210.571357 866.357692 275.707073z" p-id="6917"></path></svg>