<?xml version="1.0" standalone="no"?><!DOCTYPE svg PUBLIC "-//W3C//DTD SVG 1.1//EN" "http://www.w3.org/Graphics/SVG/1.1/DTD/svg11.dtd"><svg t="1574905287114" class="icon" viewBox="0 0 1024 1024" version="1.1" xmlns="http://www.w3.org/2000/svg" p-id="4796" xmlns:xlink="http://www.w3.org/1999/xlink" width="64" height="64"><defs><style type="text/css"></style></defs><path d="M862.544728 0H185.507246C121.027486 0 68.317841 52.709645 68.317841 117.189405v789.62119c0 64.47976 52.709645 117.189405 117.189405 117.189405h676.525738c64.47976 0 117.189405-52.709645 117.189405-117.189405V117.189405C979.222389 52.709645 926.512744 0 862.544728 0zM233.611194 227.214393c0-31.216392 25.587206-56.803598 56.803599-56.803598h461.593203c31.216392 0 56.803598 25.587206 56.803598 56.803598s-25.587206 56.803598-56.803598 56.803598H290.414793c-31.216392 0.511744-56.803598-25.075462-56.803599-56.803598z m55.268366 624.83958c-31.216392 0-56.803598-25.075462-56.803598-56.291854s25.587206-56.291854 56.803598-56.291854 56.803598 25.075462 56.803598 56.291854-25.587206 56.291854-56.803598 56.291854z m0-169.89905c-31.216392 0-56.803598-25.075462-56.803598-56.803599 0-31.216392 25.587206-56.291854 56.803598-56.291854s56.803598 25.075462 56.803598 56.291854-25.587206 56.803598-56.803598 56.803599z m0-170.410795c-31.216392 0-56.803598-25.075462-56.803598-56.291854s25.587206-56.291854 56.803598-56.291854 56.803598 25.075462 56.803598 56.291854-25.587206 56.291854-56.803598 56.291854z m232.331834 340.309845c-31.216392 0-56.803598-25.075462-56.803598-56.291854s25.587206-56.291854 56.803598-56.291854 56.803598 25.075462 56.803599 56.291854c-0.511744 31.216392-25.587206 56.291854-56.803599 56.291854z m0-169.89905c-31.216392 0-56.803598-25.075462-56.803598-56.803599 0-31.216392 25.587206-56.291854 56.803598-56.291854s56.803598 25.075462 56.803599 56.291854c-0.511744 31.216392-25.587206 56.803598-56.803599 56.803599z m0-170.410795c-31.216392 0-56.803598-25.075462-56.803598-56.291854s25.587206-56.291854 56.803598-56.291854 56.803598 25.075462 56.803599 56.291854c-0.511744 31.216392-25.587206 56.291854-56.803599 56.291854z m231.82009 340.309845c-31.216392 0-56.803598-25.075462-56.803598-56.291854s25.587206-56.291854 56.803598-56.291854 56.803598 25.075462 56.803598 56.291854-25.587206 56.291854-56.803598 56.291854z m0-169.89905c-31.216392 0-56.803598-25.075462-56.803598-56.803599 0-31.216392 25.587206-56.291854 56.803598-56.291854s56.803598 25.075462 56.803598 56.291854-25.587206 56.803598-56.803598 56.803599z m0-170.410795c-31.216392 0-56.803598-25.075462-56.803598-56.291854s25.587206-56.291854 56.803598-56.291854 56.803598 25.075462 56.803598 56.291854-25.587206 56.291854-56.803598 56.291854z" fill="#e6e6e6" p-id="4797"></path></svg>