<?xml version="1.0" standalone="no"?><!DOCTYPE svg PUBLIC "-//W3C//DTD SVG 1.1//EN" "http://www.w3.org/Graphics/SVG/1.1/DTD/svg11.dtd"><svg t="1575463092275" class="icon" viewBox="0 0 1024 1024" version="1.1" xmlns="http://www.w3.org/2000/svg" p-id="8342" xmlns:xlink="http://www.w3.org/1999/xlink" width="64" height="64"><defs><style type="text/css"></style></defs><path d="M674.26786803 799.49567622c0 29.29586409 15.60845222 56.31048839 40.94216635 70.95842054 25.33371405 14.64793203 56.55061856 14.64793203 82.00440203 0 25.33371405-14.64793203 40.94216633-41.66255637 40.94217521-70.95842054s-15.60845222-56.31048839-40.94217521-70.95842946c-25.33371405-14.64793203-56.55061856-14.64793203-82.00440203 0-25.33371405 14.52786266-40.94216633 41.66255637-40.94216635 70.95842946z m0 0M182.48156788 799.49567622c0 45.264507 36.73989523 82.00440204 82.00441099 82.00440209 45.264507 0 82.00440204-36.73989523 82.0044021-82.00440209 0-45.264507-36.73989523-82.00440204-82.0044021-82.00440194-45.264507 0-82.00440204 36.61982573-82.00441099 82.00440194z m0 0" p-id="8343"></path><path d="M774.64221322 266.64714928H694.67892101v-61.47328878c0-34.81885495-26.65443386-61.47328859-61.47328876-61.47328861H79.94605259c-34.81885495 0-61.47328859 26.65443386-61.47328885 61.47328861V738.02238752c0 34.81885495 26.65443386 61.47328859 61.47328885 61.4732887h61.47328857c0-67.5966 55.34996835-122.9465774 122.94656827-122.94657737 67.5966 0 122.9465774 55.34996835 122.94657731 122.94657737h245.89314551c0-67.5966 55.34996835-122.9465774 122.94656828-122.94657737 67.5966 0 122.9465774 55.34996835 122.94657728 122.94657737h61.47328879c34.81885495 0 61.47328859-26.65443386 61.47328859-61.4732887v-282.75311036c0-18.49001264-8.16442113-36.85995566-24.61333289-49.22664777l-165.9298445-127.02878801c-10.20552195-8.28448169-24.49326339-12.36669228-36.85996458-12.3666921z m186.46096675 286.95538135H694.67892101v-245.89315469h61.47327952c14.2877325 0 26.65443386 4.08221066 36.85996478 12.24663185l143.47769066 110.69994544c14.2877325 12.24663171 24.6133239 28.69553463 24.613324 49.22665705v73.71992035z m0 0" p-id="8344"></path></svg>