<?xml version="1.0" standalone="no"?><!DOCTYPE svg PUBLIC "-//W3C//DTD SVG 1.1//EN" "http://www.w3.org/Graphics/SVG/1.1/DTD/svg11.dtd"><svg t="1575537106285" class="icon" viewBox="0 0 1024 1024" version="1.1" xmlns="http://www.w3.org/2000/svg" p-id="5243" xmlns:xlink="http://www.w3.org/1999/xlink" width="64" height="64"><defs><style type="text/css"></style></defs><path d="M179.2 610.4c0 51.2 8.8 100.8 24.8 146.4 58.4-170.4 213.6-292 397.6-292l0 72.8c0 28 15.2 52.8 39.2 65.6 9.6 4.8 20.8 8 31.2 8 15.2 0 29.6-4.8 42.4-14.4l281.6-219.2c17.6-13.6 28-35.2 28-58.4 0-23.2-10.4-44.8-28-58.4L714.4 40.8c-12-9.6-27.2-14.4-42.4-14.4-10.4 0-21.6 2.4-31.2 8-24 12-39.2 37.6-39.2 65.6l0 72.8C368.8 172 179.2 368.8 179.2 610.4z" p-id="5244"></path><path d="M972.8 588.8c-28 0-51.2 23.2-51.2 51.2l0 51.2 0 10.4c0 108-4 194.4-204.8 194.4L307.2 896c-207.2 0-204.8-92-204.8-204.8l0-256C88 274.4 164 239.2 256 232l0 0 3.2 0c28 0 51.2-23.2 51.2-51.2 0-28-23.2-52-51.2-52l-3.2 0L256 128l-51.2 0C92 128 0 220 0 332.8l0 460.8c0 112.8 92 204.8 204.8 204.8l613.6 0c112.8 0 204.8-92 204.8-204.8L1023.2 640C1024 612 1000.8 588.8 972.8 588.8z" p-id="5245"></path></svg>