<?xml version="1.0" standalone="no"?><!DOCTYPE svg PUBLIC "-//W3C//DTD SVG 1.1//EN" "http://www.w3.org/Graphics/SVG/1.1/DTD/svg11.dtd"><svg t="1575537170957" class="icon" viewBox="0 0 1024 1024" version="1.1" xmlns="http://www.w3.org/2000/svg" p-id="6178" xmlns:xlink="http://www.w3.org/1999/xlink" width="64" height="64"><defs><style type="text/css"></style></defs><path d="M714.319 543.114c-6.144-15.754-19.456-22.568-40.33-20.44h-82.55V399.28c0-27.845-13.982-41.826-41.866-41.826h-81.605a43.166 43.166 0 0 0-28.475 13.39c-8.192 8.271-12.603 17.763-13.39 28.436v123.392h-89.01c-7.168 0-13.824 1.615-19.929 4.845a34.225 34.225 0 0 0-14.454 15.556 36.864 36.864 0 0 0-4.332 20.992c0.67 6.814 4.332 13.391 10.752 19.85l171.717 179.2c3.623 3.624 7.562 6.656 11.815 9.138 4.332 2.48 9.65 4.174 16.07 4.804 6.458 2.954 11.814 3.23 16.107 1.182 4.333-2.127 8.271-5.041 11.776-8.546l171.717-185.738c10.122-11.54 12.091-25.128 6.026-40.882M981.11 166.912c24.34 23.198 38.597 52.46 42.93 87.434v638.66c-1.38 38.598-14.691 69.908-39.74 93.854-25.009 23.986-55.414 36.234-91.175 37.061h-762.21c-38.597-1.378-69.908-14.69-93.854-39.7C13.076 959.135 0.709 928.769 0 893.008V130.914C1.378 92.318 14.69 61.046 39.7 37.1 64.788 13.076 95.153 0.788 130.914 0H385.34c17.88 0.748 35.525 5.553 53.09 14.572 17.527 8.901 31.666 20.165 42.418 33.792l41.826 48.246c6.42 10.752 13.785 19.18 22.016 25.246 8.192 6.065 19.18 9.058 32.69 9.058h309.169c38.715 0.749 70.144 12.722 94.523 35.998" p-id="6179"></path></svg>