<?xml version="1.0" standalone="no"?><!DOCTYPE svg PUBLIC "-//W3C//DTD SVG 1.1//EN" "http://www.w3.org/Graphics/SVG/1.1/DTD/svg11.dtd"><svg t="1574905397056" class="icon" viewBox="0 0 1024 1024" version="1.1" xmlns="http://www.w3.org/2000/svg" p-id="7165" xmlns:xlink="http://www.w3.org/1999/xlink" width="64" height="64"><defs><style type="text/css"></style></defs><path d="M810.1836861393818 684.1890974578581c-72.05984510721494 0-130.50123752944927 58.65585598719325-130.50123752944927 131.14462910595245S738.1238410321668 946.4783547881367 810.1836861393818 946.4783547881367c72.16707733050762 0 130.6084688711155-58.65585598719325 130.6084688711155-131.144628224326S882.2435312465967 684.1890974578581 810.1836861393818 684.1890974578581m86.21445714540606 96.83041639445602s-93.93515518181806 92.7556042521043-94.47131453502857 93.1845322636486c-10.723191472342634 10.615959249049958-16.29925033265966 8.90024896612571-21.01745493314099 4.074812142351697l-56.189521904473125-56.40398546943204c-4.718203718854899-4.825435942147577-4.396508812229733-12.760597543518486 0.6433915765032017-17.907729273917663 5.039899507106501-5.1471317303991775 13.082293331770089-5.46882751865078 17.80049705062498-0.6433915765032017l45.89525844367476 46.10972200863368 89.00248701637778-87.17954451016087c5.1471317303991775-5.039899507106501 13.403989120021688-4.932668165440256 18.443889508754623 0.21446356495892221 5.1471317303991775 5.254363953691857 5.039899507106501 13.511221343314366-0.10723222329267863 18.551120850420862M376.96676035463 156.8225529263294h200.0947485539441c21.124687156433673 0 38.81795198376598-19.837904003427266 38.81795198376598-44.50124394900211 0-24.55610772228217-17.69326570895874-44.39401172570943-39.99750379510614-44.39401172570943H376.96676035463c-22.197005862854716 0-39.890271571813464 19.837904003427266-39.890271571813464 44.39401172570943-0.10723222329267863 24.55610772228217 17.69326570895874 44.50124394900211 39.890271571813464 44.50124394900211m418.20445772347205 486.61841781825314c23.269324569275767 0 45.35909909046424 4.825435942147577 65.51869800051668 13.511221343314366V217.5158149846985c0-60.26433492845125-32.3840371003604-101.97754900648164-100.0473733953456-101.97754812485519h-90.18203882771795c0.8578551414621239 4.825435942147577 1.3940144946726472 9.758104107587835 1.394015376299082 14.798003614694332 0.10723222329267863 37.31670526580066-26.91520958170961 74.09725117839078-58.97755177544484 74.09725117839078H335.78970562981016c-33.77805247665948 0-60.800494281661784-36.673313689297444-60.800494281661784-74.09725117839078 0.10723222329267863-4.932668165440256 0.6433915765032017-9.972567672546758 1.5012467179653255-14.798003614694332h-91.25435665251258c-73.34662826022132 0-91.36158887580525 41.7132140780304-91.36158975743169 101.97754812485519v596.5311284261056c0 64.76807508234722 25.84289087528857 100.90522941843417 96.93764861774869 100.90522941843417h477.6109375104612c-23.91271614577897-28.738152087926544-38.28179263055545-65.73316244710205-38.28179263055545-106.15959337212603 0-91.25435753413899 73.88278761343186-165.3516087125298 165.02991292427816-165.3516087125298m-508.8154236811078-301.3216737606298h390.9675523535107c14.476307826442733 0 26.59351467508445 13.511221343314366 27.77306472317174 29.059848757804584 0 14.58354004973541-15.119699402945932 30.132167464225624-29.596007229388665 30.132167464225624H283.4605323027297c-14.476307826442733 0-23.698252580820043-15.548627414490213-23.698252580820043-30.132167464225624 0-14.476307826442733 12.224438190307966-29.059847876178143 26.59351467508445-29.059848757804584m176.0748001848724 393.6483500011899H283.4605323027297c-14.476307826442733 0-23.698252580820043-15.548627414490213-23.698252580820043-30.132167464225624 0-14.58354004973541 12.224438190307966-29.059847876178143 26.59351467508445-29.059847876178143h177.89774269108932c14.476307826442733 0 26.7007460167507 13.403989120021688 27.77306472317174 29.059847876178143 0.10723222329267863 14.58354004973541-15.119699402945932 30.132167464225624-29.596007229388665 30.132167464225624M281.74482201980544 571.1666620724086c-14.476307826442733 0-28.84538431121922-17.80049705062498-28.84538431121922-32.384037981986836 0-14.476307826442733 12.224438190307966-26.807978240043376 26.7007460167507-26.807977358416938h390.9675523535107c14.476307826442733 0 26.59351467508445 11.25935082555316 27.773065604798173 26.807977358416938 0 14.58354004973541-9.972567672546758 32.3840371003604-24.448876380615932 32.384037981986836H281.74482201980544m0 0" fill="" p-id="7166"></path></svg>