<?xml version="1.0" standalone="no"?><!DOCTYPE svg PUBLIC "-//W3C//DTD SVG 1.1//EN" "http://www.w3.org/Graphics/SVG/1.1/DTD/svg11.dtd"><svg t="1575536586982" class="icon" viewBox="0 0 1024 1024" version="1.1" xmlns="http://www.w3.org/2000/svg" p-id="3817" xmlns:xlink="http://www.w3.org/1999/xlink" width="64" height="64"><defs><style type="text/css"></style></defs><path d="M238.848 0.085333A238.848 238.848 0 0 0 1.024 237.909333 238.848 238.848 0 0 0 238.933333 475.648h237.738667V237.909333C473.685333 107.349333 369.322667 0 238.933333 0m782.933334 237.824A238.848 238.848 0 0 0 783.957333 0a238.848 238.848 0 0 0-237.738666 237.824v237.738667h237.738666c133.376-2.901333 237.824-107.264 237.824-237.738667M1.024 783.018667A238.848 238.848 0 0 0 238.933333 1020.757333a238.848 238.848 0 0 0 237.738667-237.738666V545.28H238.933333C105.472 548.096 1.024 652.544 1.024 783.018667m782.933333-234.922667H546.218667V785.92a238.848 238.848 0 0 0 237.738666 237.738667 238.848 238.848 0 0 0 237.824-237.738667 236.970667 236.970667 0 0 0-237.824-237.824" p-id="3818"></path></svg>