<?xml version="1.0" standalone="no"?><!DOCTYPE svg PUBLIC "-//W3C//DTD SVG 1.1//EN" "http://www.w3.org/Graphics/SVG/1.1/DTD/svg11.dtd"><svg t="1574133858663" class="icon" viewBox="0 0 1024 1024" version="1.1" xmlns="http://www.w3.org/2000/svg" p-id="4452" xmlns:xlink="http://www.w3.org/1999/xlink" width="64" height="64"><defs><style type="text/css"></style></defs><path d="M874.642286 978.985796a201.289143 201.289143 0 0 1-115.879184 36.65502c-106.830367 0-193.368816-80.498939-193.368816-179.785143 0-40.604735 15.004735-77.656816 39.392653-107.770775l269.855347 250.900898z m-151.301225-372.004572c-128.731429 16.237714-227.934041 118.742204-227.934041 242.876082 0 46.602449 14.001633 90.21649 38.326858 127.310367H81.084082c0-228.268408 198.990367-413.298939 444.457796-413.298938 71.073959 0 138.260898 15.527184 197.799183 43.112489z m-197.799183-113.183346c-145.637878 0-263.669551-109.756082-263.669551-245.15396C261.872327 113.225143 379.924898 3.448163 525.541878 3.448163c145.61698 0 263.732245 109.77698 263.732244 245.195755 0 135.397878-118.115265 245.153959-263.732244 245.15396z m403.226122 425.963102l-260.325878-241.998368c27.104653-13.395592 57.469388-21.733878 90.32098-21.733877 106.788571 0 193.347918 80.498939 193.347918 179.826938 0 30.427429-8.923429 58.744163-23.34302 83.905307z" p-id="4453"></path></svg>