<?xml version="1.0" standalone="no"?><!DOCTYPE svg PUBLIC "-//W3C//DTD SVG 1.1//EN" "http://www.w3.org/Graphics/SVG/1.1/DTD/svg11.dtd"><svg t="1575536945414" class="icon" viewBox="0 0 1024 1024" version="1.1" xmlns="http://www.w3.org/2000/svg" p-id="4244" xmlns:xlink="http://www.w3.org/1999/xlink" width="64" height="64"><defs><style type="text/css"></style></defs><path d="M815.627987 437.361018C807.638291 445.350714 794.682195 445.350714 786.691245 437.361018L728.817766 379.497523C720.833062 371.502829 720.833062 358.551725 728.817766 350.560781L772.227872 307.154419C780.218816 299.165971 793.16992 299.165971 801.159616 307.154419L859.028102 365.024154C867.017805 373.015104 867.022797 385.9712 859.028102 393.960896L815.627987 437.361018ZM673.438093 295.176115C665.447149 303.160819 652.491053 303.160819 644.501357 295.176115L586.632864 237.302637C578.643168 229.311686 578.643168 216.359334 586.632864 208.370886L630.032986 164.965773C638.022682 156.981075 650.973786 156.976077 658.969728 164.965773L716.838214 222.839258C724.82791 230.827706 724.82791 243.77881 716.838214 251.771008L673.438093 295.176115ZM773.364262 704.502637 752.735654 683.871533 1010.906035 425.7024C1029.589043 407.02439 1026.267283 373.399725 1003.477043 350.614477L673.384397 20.526829C650.594157-2.263418 616.974483-5.585171 598.291482 13.097837L340.126095 271.256973 319.497491 250.629619C296.707247 227.839373 262.614291 224.990906 243.350603 244.252096L51.491715 436.112237C38.530623 449.068333 35.594739 468.736627 41.984749 487.156134L41.848632 487.015027 86.306467 752.014982 17.092808 821.233638C-5.697436 844.023885-5.697436 880.965306 17.092808 903.755552L120.243325 1006.907315C143.033569 1029.697562 179.979988 1029.697562 202.765237 1006.907315L271.985139 937.691162 536.983852 982.151494 536.837745 982.005382C555.262252 988.40039 574.925549 985.46201 587.886643 972.500915L779.740538 780.648275C799.007968 761.375846 796.14951 727.287885 773.364262 704.502637L773.364262 704.502637Z" p-id="4245"></path></svg>