<?xml version="1.0" standalone="no"?><!DOCTYPE svg PUBLIC "-//W3C//DTD SVG 1.1//EN" "http://www.w3.org/Graphics/SVG/1.1/DTD/svg11.dtd"><svg t="1574993546515" class="icon" viewBox="0 0 1025 1024" version="1.1" xmlns="http://www.w3.org/2000/svg" p-id="3687" xmlns:xlink="http://www.w3.org/1999/xlink" width="64.0625" height="64"><defs><style type="text/css"></style></defs><path d="M771.616 253.856l-63.136 0 0-63.024-63.152 0L645.328 127.808l-315.744 61.056L95.536 884.144l44.576 0 0-63.024 63.152 0L203.264 758.08l63.152 0L266.416 695.04l63.152 0 0-63.008 63.152 0 0-63.024 63.152 0 0-63.04 63.136 0 0-63.008 0-63.024 63.168 0 63.136 0 0 63.024 0 63.008-63.136 0-63.168 0 0 63.04-63.136 0 0 63.024-63.152 0 0 63.008-63.152 0 0 63.024-63.152 0 0 63.024-63.152 0 0 63.024L140.112 884.112l0 43.216 694.656-232.32 50.72-315.136-50.72 0 0-63.024-63.152 0L771.616 253.856zM13.808 1010.192l63.152 0 0-63.024L13.808 947.168 13.808 1010.192zM961.056 253.856l0-60.128-3.04-2.896L897.92 190.832 897.92 133.6l-6.08-5.792-57.072 0L834.768 73.456 834.768 64.784l-9.104 0-54.048 0L771.616 13.312 771.616 1.744l-63.136 0L708.48 60.32l0 4.464-4.848 0-58.32 0 0 53.664-4.848 4.464 4.848 4.912 63.152 0 0 63.024 63.136 0 0 63.024 63.152 0 0 63.024 60.864 0 0.32-1.968 1.344 1.968 0.64 0 0 0.928 0 62.112 42.784 0 20.352 0 0-63.024 63.136 0 0-63.024L961.056 253.888z" p-id="3688"></path></svg>