<?xml version="1.0" standalone="no"?><!DOCTYPE svg PUBLIC "-//W3C//DTD SVG 1.1//EN" "http://www.w3.org/Graphics/SVG/1.1/DTD/svg11.dtd"><svg t="1574134700232" class="icon" viewBox="0 0 1024 1024" version="1.1" xmlns="http://www.w3.org/2000/svg" p-id="6549" xmlns:xlink="http://www.w3.org/1999/xlink" width="64" height="64"><defs><style type="text/css"></style></defs><path d="M365.723788 585.141204a292.8507 292.8507 0 0 0 146.2692-39.472717c21.809828-12.543211 41.981359-27.799851 59.951429-45.360347a37.086947 37.086947 0 0 0 21.195466-21.963418c-0.255984-2.201462-0.255984-4.402923 0-6.604385a267.487815 267.487815 0 0 0 55.599703-106.028531 267.298387 267.298387 0 0 0 9.522601-73.160198 285.411808 285.411808 0 0 0-40.957423-146.2692C546.243633 23.154153 396.902627-31.01204 263.381425 17.880885 129.860224 66.77381 50.812396 204.595541 76.103605 344.567536c25.240012 139.920799 147.446726 241.444013 289.620183 240.573668z m261.820331 146.2692a272.991469 272.991469 0 0 0-62.920842-40.957424c-8.549862-4.351726-17.355708-8.242682-26.315145-11.724062-8.498665-4.249333-17.304512-7.884304-26.315144-10.956111a209.753207 209.753207 0 0 0-62.920843-9.522601H281.607479c-21.093073 0.102394-42.032556 3.276594-62.152891 9.522601a292.067389 292.067389 0 0 0-134.596334 73.160198 292.640793 292.640793 0 0 0-84.833064 209.906797c0 40.394259 32.765939 73.160198 73.109002 73.160198h585.076799c40.394259 0 73.160198-32.765939 73.160198-73.160198 1.075132-12.645605 1.075132-25.393603 0-38.039208a292.123705 292.123705 0 0 0-103.82707-181.39019z m313.017112-133.828382c4.966088-14.386295 18.430841-24.062486 33.636284-24.16488H1023.960785V500.30814h-49.712073a35.853105 35.853105 0 0 1-33.636285-24.113683c-1.996674-6.246007-4.45412-12.389621-7.321139-18.27725a35.760951 35.760951 0 0 1 6.604385-40.957424l35.12099-35.120991-51.913534-51.913535-34.353039 35.837746a35.873584 35.873584 0 0 1-41.674179 6.604385l-18.27725-6.604385a36.518663 36.518663 0 0 1-24.113684-35.837746v-48.995318h-62.920842v11.724063a375.067608 375.067608 0 0 1-32.202774 152.105632c3.686168-2.355052 7.577123-4.300529 11.724062-5.836433 2.969413-2.457445 6.501991-4.198136 10.239356-5.119678 11.672866-4.351726 24.062486-6.604385 36.554501-6.604384 12.492014-0.15359 24.881635 2.099068 36.554501 6.604384l10.95611 4.402923a106.694089 106.694089 0 0 1 51.913535 51.19678c1.535903 3.532578 2.764626 7.218746 3.634971 10.956111 4.505317 11.672866 6.706778 24.062486 6.604385 36.554501 0 12.492014-2.201462 24.881635-6.604385 36.5545-0.767952 3.583775-1.996674 7.013959-3.634971 10.239356-10.956111 22.680173-29.284558 40.957424-51.913535 51.913535-3.378987 2.099068-7.065156 3.583775-10.95611 4.402923-11.672866 4.505317-24.062486 6.706778-36.554501 6.604385-12.492014 0-24.881635-2.252658-36.554501-6.604385-3.686168-0.716755-7.167549-2.201462-10.239356-4.402923a111.736972 111.736972 0 0 1-51.913535-50.480025l-4.402923-10.239356c-4.556513-12.133637-6.757975-25.035225-6.604384-38.039207-0.409574-3.1742-0.409574-6.348401 0-9.522601a227.830789 227.830789 0 0 1-27.799852 32.151578 328.181597 328.181597 0 0 1-38.755962 32.202774c0.409574 1.945478 0.409574 3.942152 0 5.836433l7.32114 18.27725c2.099068 6.911565 2.099068 14.283902 0 21.195467a386.228506 386.228506 0 0 1 176.987267 155.791801h28.516607v-49.712073a35.13635 35.13635 0 0 1 24.113683-33.636285l18.27725-8.037894c13.823131-6.553188 30.257297-3.634971 40.957424 7.321139l35.120991 35.120991 51.913534-51.913534-35.12099-33.636285a35.837746 35.837746 0 0 1-6.604385-40.957423 194.342976 194.342976 0 0 0 7.269943-19.761957z m0 0" p-id="6550"></path></svg>