<?xml version="1.0" standalone="no"?><!DOCTYPE svg PUBLIC "-//W3C//DTD SVG 1.1//EN" "http://www.w3.org/Graphics/SVG/1.1/DTD/svg11.dtd"><svg t="1575512654761" class="icon" viewBox="0 0 1024 1024" version="1.1" xmlns="http://www.w3.org/2000/svg" p-id="3693" xmlns:xlink="http://www.w3.org/1999/xlink" width="64" height="64"><defs><style type="text/css"></style></defs><path d="M766.5 224.9h85.2c59.1 0 81.1-44 81.1-82.5 0-45.3-30.2-78.3-81.1-78.3H729.4v277.6h37.1V224.9z m0-129.2h74.2c30.2 0 53.6 11 53.6 46.7 0 37.1-22 49.5-55 49.5h-72.8V95.7z m-606 689.9v70.1c0 45.4 41.2 44 41.2 44 45.3 0 49.5-42.6 49.5-42.6v-72.8h375.2v70.1c0 46.7 48.1 44 48.1 44 42.6 0 42.6-41.2 42.6-41.2V783c64.6 1.4 66-72.8 66-72.8V543.7c0-77-77-101.7-77-101.7l-17.9-109.9c-11-83.8-85.2-85.2-85.2-85.2H297.9c-74.2 0-88 63.2-88 63.2L193.5 442c-78.3 0-92.1 88-92.1 88v173.2c0 86.5 59.1 82.4 59.1 82.4z m142.9-197.9c0-6.9 5.5-12.4 12.4-12.4h259.7c6.9 0 12.4 5.5 12.4 12.4s-5.5 12.4-12.4 12.4H315.8c-6.9-1.4-12.4-5.5-12.4-12.4z m13.8 44h259.7c6.9 0 12.4 5.5 12.4 12.4s-5.5 12.4-12.4 12.4H317.2c-6.9 0-11-5.5-11-12.4-1.4-6.9 4.1-12.4 11-12.4z m262.4 86.6H319.9c-6.9 0-12.4-5.5-12.4-12.4s5.5-12.4 12.4-12.4h259.7c6.9 0 11 5.5 11 12.4s-5.5 12.4-11 12.4z m86.6-202c23.4 0 42.6 19.2 42.6 44 0 24.7-19.2 44-42.6 44-23.4 0-42.6-19.2-42.6-44s19.2-44 42.6-44zM270.4 339s0-26.1 24.7-26.1h291.3s31.6-2.8 35.7 30.2l16.5 97.6h-382L270.4 339z m-46.7 174.5c23.4 0 42.6 19.2 42.6 44 0 24.7-19.2 44-42.6 44-23.4 0-42.6-19.2-42.6-44s19.3-44 42.6-44z m-136 405.4v41.2h847.9v-41.2H87.7z m0 0" p-id="3694"></path></svg>