<?xml version="1.0" standalone="no"?><!DOCTYPE svg PUBLIC "-//W3C//DTD SVG 1.1//EN" "http://www.w3.org/Graphics/SVG/1.1/DTD/svg11.dtd"><svg t="1575463068606" class="icon" viewBox="0 0 1024 1024" version="1.1" xmlns="http://www.w3.org/2000/svg" p-id="8218" xmlns:xlink="http://www.w3.org/1999/xlink" width="64" height="64"><defs><style type="text/css"></style></defs><path d="M673.134 786.366c0 49.406 39.83 89.442 88.983 89.442 49.155 0 88.984-40.036 88.984-89.442 0-49.405-39.83-89.442-88.984-89.442-49.153 0-88.983 40.037-88.983 89.442z m-538.718 0c0 49.406 39.828 89.442 88.984 89.442 49.154 0 88.99-40.036 88.99-89.442 0-49.405-39.836-89.442-88.99-89.442-49.155 0-88.984 40.037-88.984 89.442zM41.222 456.85l85.979-115.273c17.586-21.303 29.458-38.674 57.717-38.674h173.156c21.198 0 38.488 17.371 38.488 38.674v386.776c0 21.226-17.179 38.488-38.252 38.637-9.475-66.624-66.068-118.184-134.91-118.184-68.881 0-125.474 51.597-134.904 118.22H50.238c-21.19 0-38.475-17.372-38.475-38.673V534.967c0-36.646 29.46-78.116 29.46-78.116z m239.896 78.109V380.258h-94.127c-6.21 0-14.81 9.134-14.81 9.134l-81.02 112.705c-7.17 10.621-14.95 23.197-14.95 32.863h204.907z m192.4-386.768h500.244c21.19 0 38.474 17.372 38.474 38.674V728.35c0 21.302-17.284 38.673-38.474 38.673H897.02c-9.43-66.63-66.023-118.22-134.903-118.22s-125.473 51.59-134.902 118.22H473.518c-21.198 0-38.481-17.371-38.481-38.673V186.867c-0.001-21.303 17.29-38.675 38.481-38.675z" p-id="8219"></path></svg>