<?xml version="1.0" standalone="no"?><!DOCTYPE svg PUBLIC "-//W3C//DTD SVG 1.1//EN" "http://www.w3.org/Graphics/SVG/1.1/DTD/svg11.dtd"><svg t="1575538088777" class="icon" viewBox="0 0 1024 1024" version="1.1" xmlns="http://www.w3.org/2000/svg" p-id="6615" xmlns:xlink="http://www.w3.org/1999/xlink" width="64" height="64"><defs><style type="text/css"></style></defs><path d="M908.1 890.2l-120-120.1c31.2-42.4 49.7-94.8 49.7-151.4 0-141.1-114.7-256-255.7-256s-255.7 114.8-255.7 256c0 141.1 114.7 256 255.7 256 56.5 0 108.8-18.5 151.2-49.7l120 120.1c7.6 7.6 17.5 11.4 27.4 11.4 9.9 0 19.8-3.8 27.4-11.4 15.1-15.2 15.1-39.8 0-54.9z m-326-78.6c-106.3 0-192.7-86.6-192.7-193s86.5-193 192.7-193c106.3 0 192.7 86.6 192.7 193 0 106.5-86.4 193-192.7 193z" p-id="6616"></path><path d="M251.1 629.3c0-180.7 146.3-327.1 326.7-327.1 110.5 0 208.2 54.9 267.3 139V123.8c0-32.9-26.6-59.6-59.5-59.6H162.2c-32.9 0-59.5 26.7-59.5 59.6v773c0 32.9 26.6 59.6 59.5 59.6h415.7c-180.5 0-326.8-146.5-326.8-327.1z m-29.7-446.1c0-16.4 13.3-29.7 29.7-29.7h445.5c16.4 0 29.7 13.3 29.7 29.7s-13.3 29.7-29.7 29.7H251.1c-16.4 0-29.7-13.3-29.7-29.7z" p-id="6617"></path></svg>