<?xml version="1.0" standalone="no"?><!DOCTYPE svg PUBLIC "-//W3C//DTD SVG 1.1//EN" "http://www.w3.org/Graphics/SVG/1.1/DTD/svg11.dtd"><svg t="1574905467598" class="icon" viewBox="0 0 1024 1024" version="1.1" xmlns="http://www.w3.org/2000/svg" p-id="9338" xmlns:xlink="http://www.w3.org/1999/xlink" width="64" height="64"><defs><style type="text/css"></style></defs><path d="M518.544283 537.661836L134.492754 863.94847c102.441224 96 230.286634 160.05153 377.610306 160.05153 275.169082 0 499.169082-217.610306 511.84541-486.338164zM486.544283 0C217.610306 12.882448 0 236.779388 0 512.10306c0 121.558776 38.441224 230.286634 108.727858 313.610306l377.610306-326.132046V0z m441.404187 211.272142a362.718196 362.718196 0 0 0-44.882447-51.117553l-345.249598 300.727859v32h64zM678.338164 25.507246l-140.676328 121.558777v83.220611l211.272141-179.117552a301.758454 301.758454 0 0 1-70.595813-25.661836z m115.375202 57.764896l-256.05153 217.455716V383.89694l306.962963-268.727858a548.89533 548.89533 0 0 1-51.117553-31.793881z m166.235104 402.962963l57.558776-51.117553c-6.441224-25.764895-6.441224-51.117552-19.117552-70.441223l-140.676328 121.558776zM537.661836 0v83.169082l83.117552-70.441224C595.220612 6.441224 563.220612 0 537.661836 0z m147.220612 486.338164h102.492753l204.676329-172.727858c-6.441224-19.117552-19.117552-38.441224-32-57.558776z" p-id="9339"></path></svg>