<?xml version="1.0" standalone="no"?><!DOCTYPE svg PUBLIC "-//W3C//DTD SVG 1.1//EN" "http://www.w3.org/Graphics/SVG/1.1/DTD/svg11.dtd"><svg t="1575537836761" class="icon" viewBox="0 0 1024 1024" version="1.1" xmlns="http://www.w3.org/2000/svg" p-id="4490" xmlns:xlink="http://www.w3.org/1999/xlink" width="64" height="64"><defs><style type="text/css"></style></defs><path d="M64 512C64 759.41824 264.581824 960 512 960 759.418176 960 960 759.41824 960 512 960 264.48 759.418176 64 512 64 264.581824 64 64 264.58176 64 512ZM673.381824 430.07712C653.527264 430.07712 637.44 413.48064 637.44 392.81152 637.44 372.24448 659.432736 333.75712 673.381824 309.01536 686.312736 333.85888 709.323648 372.34624 709.323648 392.81152 709.323648 413.37888 693.236352 430.07712 673.381824 430.07712L673.381824 430.07712ZM335.773088 516.3376C307.773088 516.3376 285.067648 492.8176 285.067648 463.6976 285.067648 434.67936 316.020352 380.41024 335.773088 345.38464 354.100352 380.41024 386.47856 434.67936 386.47856 463.6976 386.47856 492.8176 363.773088 516.3376 335.773088 516.3376L335.773088 516.3376ZM518.63856 735.65376C454.391264 735.65376 402.260352 681.69024 402.260352 614.99936 402.260352 548.41024 473.431264 423.98848 518.63856 343.552 560.68944 423.98848 635.016736 548.41024 635.016736 614.99936 635.016736 681.58848 582.987648 735.65376 518.63856 735.65376L518.63856 735.65376Z" p-id="4491"></path></svg>