<?xml version="1.0" standalone="no"?><!DOCTYPE svg PUBLIC "-//W3C//DTD SVG 1.1//EN" "http://www.w3.org/Graphics/SVG/1.1/DTD/svg11.dtd"><svg t="1575537821515" class="icon" viewBox="0 0 1024 1024" version="1.1" xmlns="http://www.w3.org/2000/svg" p-id="4366" xmlns:xlink="http://www.w3.org/1999/xlink" width="64" height="64"><defs><style type="text/css"></style></defs><path d="M731.47904 847.20128c-50.4832 0-91.47392 39.52128-91.30496 88.31488 0 48.80896 40.99072 88.48384 91.47392 88.48384s91.47392-39.52128 91.30496-88.33024c0.00512-48.7936-40.9856-88.31488-91.47392-88.46848z m-439.04 0c-50.4832 0-91.30496 39.52128-91.30496 88.31488C201.12896 984.32 242.1248 1024 292.608 1024s91.47392-39.52128 91.30496-88.33024c0-48.7936-40.82176-88.31488-91.47392-88.46848z m624.32256-122.88512l-139.96032-168.79104c-0.49664-0.65024-1.15712-1.28512-1.664-1.92512-27.15648-31.04256-72.64256-72.1664-154.46016-71.04512H274.45248c-110.97088 0-145.4592 75.36128-155.2896 107.84768-0.50688 2.06848-1.17248 4.1472-1.664 6.23104l-30.0032 129.92C37.51936 736.32256 0.0256 779.03872 0.0256 830.06976c0 58.40384 48.98816 105.6 109.47584 105.6h36.81792c0-78.06976 65.47968-141.27104 146.11968-141.27104 80.64512 0.1536 146.13504 63.20128 146.29376 141.27104h146.46272c0-78.06976 65.47968-141.27104 146.13504-141.27104 80.64512 0.1536 146.1248 63.20128 146.29376 141.27104h36.98688c60.48768 0 109.47584-47.34976 109.47584-105.6 0.14848-58.06592-47.84128-104.79104-107.32544-105.7536z m-527.5136-0.1536H194.9696l24.4992-106.08128c9.32352-31.04256 31.8208-35.20512 54.81472-35.20512h114.96448v141.2864z m104.46848 0v-141.2864h128.13824c33.31584-0.48128 51.82464 10.88512 73.1392 35.20512l87.97696 106.08128H493.71648z m155.79648-335.68256c65.47968 0 118.79936-55.51616 118.79936-123.03872 0-38.8864-17.65888-96-37.3248-115.04128L657.17248 6.24128C655.01184 2.72896 652.01152 0 649.344 0c-2.66752 0-5.16096 2.72896-7.168 6.24128l-74.48064 144.15872c-19.66592 19.04128-37.49376 76.32384-37.49376 115.04128 0.00512 67.52256 53.49376 123.03872 119.31136 123.03872z m-347.56608-35.18976c45.32224 0 82.14016-38.8864 82.14016-86.2464 0-27.19232-12.32896-72.4736-25.82528-85.75488l-51.1488-88.48384c-1.5104-2.56-3.328-4.31616-5.16096-4.31616-2.00192 0-3.83488 1.90976-5.17632 4.31616L245.29408 181.28896c-13.66528 13.27616-25.99424 58.71616-25.99424 85.75488 0 47.19104 36.98688 86.2464 82.64704 86.2464z" p-id="4367"></path></svg>