<?xml version="1.0" standalone="no"?><!DOCTYPE svg PUBLIC "-//W3C//DTD SVG 1.1//EN" "http://www.w3.org/Graphics/SVG/1.1/DTD/svg11.dtd"><svg t="1574905566998" class="icon" viewBox="0 0 1084 1024" version="1.1" xmlns="http://www.w3.org/2000/svg" p-id="2034" xmlns:xlink="http://www.w3.org/1999/xlink" width="67.75" height="64"><defs><style type="text/css"></style></defs><path d="M1073.002386 618.678011a52.645399 52.645399 0 0 1-47.043543 50.356469h-4.698331a141.13063 141.13063 0 0 0-140.949925 141.01016 159.863718 159.863718 0 0 0 12.047002 54.211509 63.788876 63.788876 0 0 1-21.564133 77.040579l-1.385406 0.96376-137.636999 75.715409-1.44564 0.662585A64.752636 64.752636 0 0 1 704.846001 1023.999398a70.173787 70.173787 0 0 1-51.259994-21.805074 201.425876 201.425876 0 0 0-114.08511-66.619922 203.112456 203.112456 0 0 0-113.302055 65.354987 69.812377 69.812377 0 0 1-50.898584 21.443663 63.849111 63.849111 0 0 1-26.08176-5.300681l-1.385405-0.60235-132.998904-74.450473-1.32517-0.903525a63.849111 63.849111 0 0 1-21.383429-77.100814 159.683013 159.683013 0 0 0 12.047003-53.910334 141.13063 141.13063 0 0 0-140.949925-141.01016H57.620812a53.067044 53.067044 0 0 1-46.200254-50.416704 503.143044 503.143044 0 0 1 0-212.629588 52.585164 52.585164 0 0 1 47.043544-50.416704h4.698331a141.13063 141.13063 0 0 0 140.949925-141.01016 159.683013 159.683013 0 0 0-12.047003-54.211509 63.728641 63.728641 0 0 1 21.624369-77.040579l1.385406-0.96376 140.347574-77.100814 1.686581-0.48188A66.258512 66.258512 0 0 1 382.588694 0.004216a71.258018 71.258018 0 0 1 51.079289 20.961784 200.100705 200.100705 0 0 0 111.67571 62.644411 199.498355 199.498355 0 0 0 110.83242-61.439711 71.197783 71.197783 0 0 1 50.657644-20.600373 65.234517 65.234517 0 0 1 26.202229 5.300681l1.385405 0.60235 135.528774 75.353998 1.325171 0.84329a63.909346 63.909346 0 0 1 21.443663 77.161049 159.201133 159.201133 0 0 0-12.047002 53.910334 141.13063 141.13063 0 0 0 140.949925 140.949925h4.698331a52.645399 52.645399 0 0 1 47.043543 50.416704A689.269227 689.269227 0 0 1 1084.326568 512.363217a682.101261 682.101261 0 0 1-11.324182 106.314794zM540.705597 293.890833A218.110974 218.110974 0 1 0 760.081506 512.001807a218.954264 218.954264 0 0 0-219.436144-218.110974z m-0.783055 341.773451a123.963652 123.963652 0 1 1 123.903417-123.963652 124.084122 124.084122 0 0 1-123.963652 123.963652z" fill="#e6e6e6" p-id="2035"></path></svg>