<?xml version="1.0" standalone="no"?><!DOCTYPE svg PUBLIC "-//W3C//DTD SVG 1.1//EN" "http://www.w3.org/Graphics/SVG/1.1/DTD/svg11.dtd"><svg t="1574134735748" class="icon" viewBox="0 0 1024 1024" version="1.1" xmlns="http://www.w3.org/2000/svg" p-id="6671" xmlns:xlink="http://www.w3.org/1999/xlink" width="64" height="64"><defs><style type="text/css"></style></defs><path d="M512 0C229.376 0 0 229.376 0 512s229.376 512 512 512 512-229.376 512-512-229.376-512-512-512z m0 153.6c84.992 0 153.6 68.608 153.6 153.6 0 84.992-68.608 153.6-153.6 153.6a153.408 153.408 0 0 1-153.6-153.6c0-84.992 68.608-153.6 153.6-153.6z m0 727.04a368.64 368.64 0 0 1-307.2-164.864C206.336 613.888 409.6 558.08 512 558.08c101.888 0 305.664 55.808 307.2 157.696A368.64 368.64 0 0 1 512 880.64z" p-id="6672"></path></svg>