<?xml version="1.0" standalone="no"?><!DOCTYPE svg PUBLIC "-//W3C//DTD SVG 1.1//EN" "http://www.w3.org/Graphics/SVG/1.1/DTD/svg11.dtd"><svg t="1574133333374" class="icon" viewBox="0 0 1161 1024" version="1.1" xmlns="http://www.w3.org/2000/svg" p-id="3920" xmlns:xlink="http://www.w3.org/1999/xlink" width="72.5625" height="64"><defs><style type="text/css"></style></defs><path d="M724.759154 710.522832c-112.855595-17.688594-149.850905-56.912108-149.900651-56.912108l-3.367647-3.584461v0.058193c-12.006394-11.460137-16.082673-31.789912-17.239949-49.471936 73.328918-56.443753 130.235394-163.512965 130.235394-283.341316 0-191.910826-128.33288-261.906825-229.152047-261.906825-100.791947 0-230.478269 69.995998-230.478268 261.906825 0 119.82929 58.342513 226.897563 131.701465 283.393877-1.104716 17.577841-5.209153 37.902923-17.302835 49.419375l-2.614901 2.811065c-0.38482 0.382943-37.24122 39.882401-150.625239 57.629188-15.946578 0.546257-82.556158 6.825398-111.281586 71.614121-15.787019 35.642808-9.365212 61.70359-1.185434 77.23719 19.393066 36.914592 62.064946 41.59626 72.641873 42.260778h613.830628c14.87659 0 64.897599-3.142386 83.631777-44.023443 7.989245-17.296265 12.231654-45.836792-12.449406-83.515393-31.683852-48.264914-80.438707-62.534239-106.443174-63.57513z" p-id="3921"></path><path d="M1010.905903 679.836697c-22.253877-34.658231-56.522595-44.902898-74.810006-45.677232-79.282369-12.615536-105.284959-40.763734-105.335643-40.763734l-2.318308-2.537937c-8.425688-8.206997-11.345629-22.860203-12.119024-35.560212 51.509606-40.518763 88.039378-111.696441 88.039378-197.724429 0-137.786319-89.029586-201.446861-159.878759-201.446861-13.604806 0-27.548441 2.094924-41.211439 6.474367 3.748713 10.881029 7.001852 22.173158 9.919916 33.798486h-8.705386s49.253245 161.974622-9.640218 300.114789c-2.809188-2.999721-5.621192-5.673753-8.322443-9.090207-8.700693 17.714874-18.561479 33.965554-29.471604 48.676953 6.393649 6.992467 13.113925 13.553184 20.330714 19.196902-0.771518 12.642755-3.693336 27.244339-12.231655 35.510467l-1.818979 2.038609c-0.167068 0.16613-14.596891 15.751352-54.264357 28.974154 28.866216 3.083255 59.059593 7.605363 88.25713 13.884504 0.773395-0.771518 1.431344-1.544913 1.981355-2.094924 1.602167-1.654727 2.868319-3.416453 4.356917-5.180995a1577.613091 1577.613091 0 0 1 20.822533 11.241446c45.12065 24.790875 126.490435 65.562118 139.880305 80.59639h-2.094924c14.601584 17.907285 27.713632 38.512066 37.735855 60.441191h64.295965c10.463358 0 42.145332-11.569012 55.309002-40.822864h0.058193c5.563-12.50666 8.590879-33.004442-8.764518-60.048863z" p-id="3922"></path></svg>