<?xml version="1.0" standalone="no"?><!DOCTYPE svg PUBLIC "-//W3C//DTD SVG 1.1//EN" "http://www.w3.org/Graphics/SVG/1.1/DTD/svg11.dtd"><svg t="1574076097457" class="icon" viewBox="0 0 1025 1024" version="1.1" xmlns="http://www.w3.org/2000/svg" p-id="2792" xmlns:xlink="http://www.w3.org/1999/xlink" width="64.0625" height="64"><defs><style type="text/css"></style></defs><path d="M717.931 467.906v-22.89H526.12v45.851h168.922c13.352 0 21.052-7.63 22.889-22.961zM294.111 381.998v17.167h180.437v-37.232H317.001c-15.331 0-22.89 6.782-22.89 20.065zM706.486 536.718H526.12v42.954l180.365-5.724c-11.443-11.514-11.443-23.879 0.001-37.23zM294.111 467.906c0 15.331 7.559 22.96 22.89 22.96h157.547v-45.851H294.111v22.891zM717.931 381.998c-1.837-11.445-10.455-18.086-25.716-20.064H526.12v37.232h191.811v-17.168z" fill="" p-id="2793"></path><path d="M896.5 0h-768C57.78 0 0.5 57.344 0.5 128v768c0 70.656 57.28 128 128 128h768c70.656 0 128-57.344 128-128V128c0-70.656-57.344-128-128-128zM208.133 224.451h266.415v-28.613c17.167-24.797 34.334-24.797 51.573 0v28.613h280.616c11.516 1.908 18.157 10.527 20.064 25.787-1.907 15.26-8.549 22.891-20.064 22.891H526.12v42.954h200.431c28.612 0 42.953 13.353 42.953 40.128v143.205c-1.907 22.889-10.525 34.334-25.786 34.334 51.503 57.296 80.257 88.805 85.979 94.527 9.538 17.168 9.538 31.438 0 42.884-15.331 11.445-28.683 10.527-40.128-2.826-7.631-5.722-15.261-13.282-22.891-22.89-9.608-9.538-17.167-18.156-22.891-25.787L225.371 642.69c-17.238 1.907-26.777-5.724-28.684-22.962 0-15.259 8.619-24.798 25.787-28.612l252.073-8.619v-45.779H285.491c-28.683 0-42.035-14.342-40.128-42.954V359.107c-1.907-28.612 11.445-43.024 40.128-43.024h189.056v-42.884H208.133c-17.168 0-25.787-7.63-25.787-22.89-0.001-15.261 8.618-23.95 25.787-25.858z m378.109 549.928c-17.167 3.885-29.672-1.837-37.231-17.167-5.723-15.261-15.26-36.314-28.612-63.09-7.63-15.261-4.733-27.624 8.619-37.161 15.26-5.722 28.542-1.837 40.058 11.445 13.282 21.123 23.809 42.105 31.438 63.019 3.814 19.145-0.989 33.487-14.272 42.954z m-269.241-54.4c-21.052 40.058-47.758 78.278-80.186 114.591-19.146 15.261-36.313 16.179-51.573 2.827-11.445-13.353-8.619-28.612 8.619-45.78 26.706-26.705 50.584-60.192 71.567-100.251 9.539-19.075 23.879-24.797 42.955-17.167 13.351 9.609 16.248 24.798 8.618 45.78z m398.175 48.676c-5.794 53.481-40.128 79.269-103.218 77.36H468.824c-61.11 0-91.631-26.775-91.631-80.257v-83.082c19.075-28.612 38.151-28.612 57.296 0v71.639c-1.908 26.775 20.982 40.127 68.741 40.127h88.805c38.151 0 59.134-10.526 63.019-31.509 3.815-19.075 14.342-27.694 31.51-25.787 20.983 3.887 30.52 14.342 28.612 31.509z m117.348 54.472c-15.331 9.537-27.695 7.559-37.232-5.724-5.722-7.63-11.445-15.33-17.167-22.891-36.314-43.942-61.111-75.381-74.464-94.527-11.445-13.353-11.445-26.775 0-40.128 13.282-9.537 27.694-8.549 42.954 2.896 24.798 30.591 56.307 70.648 94.528 120.314 9.537 15.262 6.639 28.615-8.619 40.06z" fill="" p-id="2794"></path></svg>