<?xml version="1.0" standalone="no"?><!DOCTYPE svg PUBLIC "-//W3C//DTD SVG 1.1//EN" "http://www.w3.org/Graphics/SVG/1.1/DTD/svg11.dtd"><svg t="1574133881850" class="icon" viewBox="0 0 1024 1024" version="1.1" xmlns="http://www.w3.org/2000/svg" p-id="4572" xmlns:xlink="http://www.w3.org/1999/xlink" width="64" height="64"><defs><style type="text/css"></style></defs><path d="M512 0C228.0448 0 0 228.0448 0 512s228.0448 512 512 512 512-228.0448 512-512S795.9552 0 512 0z m186.1632 621.4656c0 20.6848-17.3056 37.1712-37.888 37.1712H551.5264v108.7488c0 20.5824-16.4864 37.7856-37.0688 37.888-20.992 0.1024-37.376-16.2816-37.376-37.2736V660.992H370.688c-20.5824 0-37.7856-16.4864-37.888-37.0688-0.1024-20.992 16.2816-37.376 37.2736-37.376h107.008V512H370.688c-20.5824 0-37.7856-16.4864-37.888-37.0688-0.1024-20.992 16.2816-37.376 37.2736-37.376h107.008v-20.992L339.7632 279.2448c-13.9264-13.9264-13.9264-37.2736 0-51.2 13.9264-13.9264 37.2736-13.9264 51.2 0l123.392 123.392L630.6816 230.4c13.9264-13.9264 37.2736-16.2816 51.2 0 13.9264 13.9264 16.2816 37.2736 0 51.2L546.9184 423.5264v18.6368h108.7488c20.5824 0 37.7856 16.4864 37.888 37.0688 0.1024 20.992-16.2816 37.376-37.2736 37.376H546.9184V588.8h109.3632c6.2464 0 12.3904 0.9216 18.3296 2.9696 10.6496 3.584 23.552 11.776 23.552 29.696z" p-id="4573"></path></svg>