<?xml version="1.0" standalone="no"?><!DOCTYPE svg PUBLIC "-//W3C//DTD SVG 1.1//EN" "http://www.w3.org/Graphics/SVG/1.1/DTD/svg11.dtd"><svg t="1574138037954" class="icon" viewBox="0 0 1024 1024" version="1.1" xmlns="http://www.w3.org/2000/svg" p-id="6420" xmlns:xlink="http://www.w3.org/1999/xlink" width="64" height="64"><defs><style type="text/css"></style></defs><path d="M511.4 12.1c-3.7 0-7.5 0-11.2 0.6-4.4 0.6-8.1 1.3-11.9 1.9-1.2 0-2.5 0.6-3.7 0.6-8.7 1.9-17.5 5-25.6 9.4-5 2.5-9.2 5-14.2 7.5-0.1 0-0.1 0.1-0.2 0.1-9.4 5.6-18 12.5-24.2 20.6-3.8 4.4-6.9 8.1-10 12.5-12.7 17-20.9 37.6-23 60.1-0.1 1.1-0.7 2.1-1.9 2.6-51.7 22.6-94.3 58.5-127.6 105.5-41.8 61.2-63.1 133.1-63.1 213.7v177.1c0 0.6-0.2 1.3-0.5 1.8l-81.9 119.8c-13.7 19.4-15.6 44.3-5 64.9 10.6 21.2 31.8 34.3 55.6 34.3h181c1.8 0 3.1 1.4 3.1 3.1 0 45.6 16.2 85.5 46.8 116.2 27.5 28.1 63.7 44.3 103 46.8 4.4 0.6 8.7 0.6 13.1 0.6 5.6 0 11.2 0 16.9-0.6 39.3-2.5 75.6-18.7 103-46.8 30.6-30.6 46.8-70.6 46.8-116.2 0-1.8 1.4-3.1 3.1-3.1H861c23.7 0 45-13.1 55.6-34.3 10.6-20.6 8.7-45.6-5-64.9l-81.9-119.8c-0.4-0.5-0.5-1.1-0.5-1.8V447c0-80.6-21.2-152.5-63.1-213.7-33.3-47-75.9-82.9-127.6-105.5-1-0.5-1.7-1.4-1.9-2.6-2.1-22.4-10.2-43-23-60.1-3.1-4.4-6.2-8.1-10-12.5-6.2-8.1-15-15-24.2-20.6-0.1 0-0.1-0.1-0.2-0.1-4.9-2.4-9.1-4.9-13.9-7.2-0.2-0.1-0.5-0.2-0.6-0.5-1.3-1-2.9-1.6-4.5-2.1-0.1 0-0.2-0.1-0.4-0.1-3.8-1.9-7.4-3-11.7-4.2-3.8-1.3-7.5-2.5-11.9-3.1h-0.6c-3.8-0.6-7.5-1.3-11.9-1.9-3.6-0.7-8-0.7-12.3-0.7z" fill="#e6e6e6" p-id="6421"></path><path d="M767.4 425.7c-8.3 0-15.4-6.3-16.2-14.8-10.8-117.6-72.9-177.8-122.8-193.7-8.6-2.7-13.3-11.9-10.6-20.4 2.7-8.6 11.8-13.3 20.4-10.6 21.5 6.8 129.5 49.6 145.4 221.7 0.8 9-5.8 16.9-14.7 17.7-0.5 0.1-1 0.1-1.5 0.1z" fill="#e6e6e6" p-id="6422"></path></svg>