<?xml version="1.0" standalone="no"?><!DOCTYPE svg PUBLIC "-//W3C//DTD SVG 1.1//EN" "http://www.w3.org/Graphics/SVG/1.1/DTD/svg11.dtd"><svg t="1575463105338" class="icon" viewBox="0 0 1285 1024" version="1.1" xmlns="http://www.w3.org/2000/svg" p-id="8467" xmlns:xlink="http://www.w3.org/1999/xlink" width="80.3125" height="64"><defs><style type="text/css"></style></defs><path d="M503.427447 10.068549a943.722371 943.722371 0 0 1 274.027805 0c63.948892 12.789778 127.897784 23.13045 188.036954 39.72995A136.061472 136.061472 0 0 1 1061.279483 138.782702q38.641458 108.849178 81.636883 217.698355c5.170336 12.245532 20.409221 30.205647 29.389278 28.845032a94.698785 94.698785 0 0 1 108.849178 75.378056 81.636883 81.636883 0 0 1 0 39.72995l-72.656826 19.864974a723.030663 723.030663 0 0 1 8.980057 76.466548V952.430305a101.229735 101.229735 0 0 1-21.769836 58.778556 600.847461 600.847461 0 0 1-204.636454 3.809721c-47.349392-30.205647-17.960114-81.636883-33.198999-121.366833H335.255467c-11.97341 43.267548-19.048606 116.196497-33.198999 121.366833a615.5421 615.5421 0 0 1-209.534667 0 115.108005 115.108005 0 0 1-23.13045-67.758613c-3.809721-51.159114-3.809721-99.869121-3.809721-149.667619 0-92.521801 0-185.315725 3.809721-278.653895l-67.758613-19.320729a75.922301 75.922301 0 0 1 0-31.294139c19.320729-50.886991 44.900286-90.61694 110.754038-84.902358 7.619442 0 22.314081-15.238885 27.212294-27.212295a1714.374549 1714.374549 0 0 0 63.404646-174.158684 217.698355 217.698355 0 0 1 191.846676-157.831308c35.10386-6.258828 71.568334-10.884918 106.672194-16.5995zM220.963831 405.191064a2021.873476 2021.873476 0 0 0 835.961685 0C1034.067188 334.166976 1009.576123 272.122944 992.976624 207.085561a106.672194 106.672194 0 0 0-106.127949-85.174482c-132.251751-5.714582-265.319871-10.068549-397.571621-11.429164a566.55997 566.55997 0 0 0-127.897784 19.864975A72.928949 72.928949 0 0 0 314.846247 163.273767c-35.648106 76.466547-62.588277 156.19857-93.882416 241.917297z m54.424589 301.512222a304.777698 304.777698 0 0 0 68.574982-3.809721 62.588277 62.588277 0 0 0 41.362687-31.294138c3.265475-9.524303-11.429164-33.198999-24.218942-38.913582a1469.463899 1469.463899 0 0 0-160.008291-63.948891C174.158684 559.756896 143.680915 561.661757 136.061472 598.670477c-12.789778 54.424589 0 86.262973 41.634811 95.243031 32.654753 6.258828 63.948892 7.619442 99.596997 10.884918z m736.908933 0a830.247103 830.247103 0 0 0 100.413366-12.789778c47.893638-10.612795 37.825089-49.798499 36.464475-83.541744s-19.048606-49.798499-45.444532-42.179056a1380.479696 1380.479696 0 0 0-190.486061 72.928949c-27.212294 13.334024-17.960114 50.342745 13.87827 57.417941a705.342672 705.342672 0 0 0 86.262974 7.619442z" p-id="8468"></path></svg>